PathFileType	4	(X/Y/Z)	C:\Users\Basilio\Documents\Thesis Gigler\squatting_fais\c3dfiles\040\SLS_pre_back5\markers_experimental.trc
DataRate	CameraRate	NumFrames	NumMarkers	Units	OrigDataRate	OrigDataStartFrame	OrigNumFrames
200.000000	200.000000	4	63	mm	200.000000	0	1469
Frame#	Time	FHD			LBHD			RBHD			C7			T10			CLAV			LSHO			LUUPA			LMUPA			LDUPA			LLEP			LMEP			LRAD			LUL			LRFIN			RSHO			RUPA1			RMUPA			RDUPA			RLEP			RMEP			RRAD			RUL			RUFIN			LASI			RASI			USACR			LSACR			RSACR			LTHI1			LTHI2			LTHI3			LTHI4			LLFC			LMFC			LTIB1			LTIB2			LTIB3			LTIB4			LLMAL			LMMAL			LHEE			LMT1			LMT2			LMT5			RTHI			RTHI2			RTHI3			RTHI4			RLFC			RMFC			RTIB1			RTIB2			RTIB3			RTIB4			RLMAL			RMMAL			RHEE			RMT1			RMT2			RMT5			*61			*62			
		X1	Y1	Z1	X2	Y2	Z2	X3	Y3	Z3	X4	Y4	Z4	X5	Y5	Z5	X6	Y6	Z6	X7	Y7	Z7	X8	Y8	Z8	X9	Y9	Z9	X10	Y10	Z10	X11	Y11	Z11	X12	Y12	Z12	X13	Y13	Z13	X14	Y14	Z14	X15	Y15	Z15	X16	Y16	Z16	X17	Y17	Z17	X18	Y18	Z18	X19	Y19	Z19	X20	Y20	Z20	X21	Y21	Z21	X22	Y22	Z22	X23	Y23	Z23	X24	Y24	Z24	X25	Y25	Z25	X26	Y26	Z26	X27	Y27	Z27	X28	Y28	Z28	X29	Y29	Z29	X30	Y30	Z30	X31	Y31	Z31	X32	Y32	Z32	X33	Y33	Z33	X34	Y34	Z34	X35	Y35	Z35	X36	Y36	Z36	X37	Y37	Z37	X38	Y38	Z38	X39	Y39	Z39	X40	Y40	Z40	X41	Y41	Z41	X42	Y42	Z42	X43	Y43	Z43	X44	Y44	Z44	X45	Y45	Z45	X46	Y46	Z46	X47	Y47	Z47	X48	Y48	Z48	X49	Y49	Z49	X50	Y50	Z50	X51	Y51	Z51	X52	Y52	Z52	X53	Y53	Z53	X54	Y54	Z54	X55	Y55	Z55	X56	Y56	Z56	X57	Y57	Z57	X58	Y58	Z58	X59	Y59	Z59	X60	Y60	Z60	X61	Y61	Z61	X62	Y62	Z62	X63	Y63	Z63	

1	0	-131.5348663330078	1761.621704101563	-1080.314086914063	-254.5935058593751	1737.660766601563	-1144.205200195313	-336.8737182617188	1716.862182617188	-1024.37060546875	-358.4552917480469	1584.908325195313	-1056.033813476563	-398.0454711914064	1262.332397460938	-1043.9345703125	-234.4989776611329	1505.125122070313	-1053.444091796875	-287.6250915527344	1537.350341796875	-1228.073120117188	-297.7504882812501	1322.9287109375	-1295.00634765625	-260.0072631835938	1302.374755859375	-1271.825317382813	-293.2005920410157	1253.980224609375	-1294.66748046875	-301.0111083984376	1188.987915039063	-1287.537719726563	-336.9372558593751	1183.427001953125	-1230.283569335938	-107.9187927246094	1003.622436523438	-1177.091430664063	-134.4832153320313	971.0217285156252	-1241.4765625	-41.52325439453126	942.9680786132815	-1180.35693359375	-279.8787536621094	1527.121948242188	-883.667419433594	-313.5025024414063	1319.519653320313	-794.795104980469	-274.9950866699219	1295.556762695313	-812.0701904296877	-309.0719299316407	1250.766479492188	-791.5759887695315	-300.7996215820313	1186.157104492188	-790.843200683594	-336.6657714843751	1172.905395507813	-858.8078613281252	-111.2173538208008	980.4934082031252	-876.0078735351565	-153.0937957763672	949.4439086914065	-819.8941040039065	-56.28825759887697	907.659362792969	-865.8203125000002	-224.5092468261719	1083.78173828125	-1159.526000976563	-212.1386871337891	1086.901245117188	-929.0213012695315	-403.7894592285157	1132.407836914063	-1034.394775390625	-411.1975402832032	1102.742553710938	-1061.05126953125	-410.216766357422	1103.955444335938	-1005.289733886719	-360.3790893554688	833.706481933594	-1223.303833007813	-326.0607299804688	756.3798217773439	-1230.694702148438	-278.8898620605469	758.0972900390626	-1231.078125	-351.4513549804688	704.1821289062501	-1217.128051757813	-339.3099670410157	570.3764038085939	-1208.390747070313	-342.5261840820313	548.8641357421876	-1076.433227539063	-298.0395507812501	349.5514221191407	-1170.51513671875	-367.2778320312501	308.0769348144532	-1209.141967773438	-323.7112731933594	302.8278503417969	-1195.806640625	-311.0450134277344	225.0097961425782	-1161.265014648438	-369.0346679687501	133.2796630859375	-1169.745239257813	-336.3774414062501	147.759033203125	-1091.189086914063	-429.7779541015626	102.450309753418	-1120.690551757813	-216.5182800292969	59.42195892333986	-1103.50732421875	-216.9824523925782	53.72740173339845	-1149.883911132813	-270.5016174316407	41.26081085205079	-1198.106811523438	-292.9114379882813	821.0940551757815	-863.8958740234377	-265.2726440429688	761.0093994140626	-869.559753417969	-232.5904693603516	760.1154174804689	-876.2352294921877	-303.3228454589844	687.8419189453126	-882.8477172851565	-313.9360961914063	551.3912353515626	-896.800720214844	-313.3352355957032	548.3858032226564	-1030.204711914063	-276.5375366210938	363.5245361328126	-929.5197753906252	-352.0596923828126	291.0402526855469	-911.1484375000002	-307.2631835937501	283.6210632324219	-918.6460571289065	-294.4236145019532	238.1314086914063	-955.1055297851565	-356.1012878417969	133.0992431640625	-941.2207031250002	-333.4882812500001	143.0215148925782	-1025.477172851563	-418.4621887207032	102.4493484497071	-1002.618835449219	-203.0633544921876	53.26682662963869	-997.4170532226565	-210.6205444335938	56.10142898559572	-958.380798339844	-258.0227966308594	41.46850585937501	-907.5263671875002	nan	nan	nan	nan	nan	nan	
2	0.005	-131.0841674804688	1761.477294921875	-1079.729858398438	-253.7695770263672	1737.604736328125	-1144.285888671875	-336.7787780761719	1716.917114257813	-1024.87939453125	-357.9860534667969	1584.9345703125	-1056.152587890625	-397.810760498047	1262.367431640625	-1043.952514648438	-233.7777557373047	1505.21533203125	-1053.588623046875	-287.1143188476563	1537.220458984375	-1228.294189453125	-298.0267639160157	1322.55322265625	-1294.844116210938	-260.3959045410157	1301.919311523438	-1271.713012695313	-293.8308105468751	1253.6142578125	-1294.384399414063	-302.0639953613282	1188.846435546875	-1287.07470703125	-337.6146545410157	1183.52587890625	-1229.560302734375	-111.2686309814453	999.3675537109377	-1179.054321289063	-138.7260894775391	967.794860839844	-1243.83056640625	-46.07826614379884	937.7484130859377	-1183.558471679688	-279.6141967773438	1527.213012695313	-883.6228027343752	-313.8583984375001	1319.670288085938	-794.6931762695315	-275.5525207519532	1295.547973632813	-811.7805175781252	-309.6408996582032	1250.839477539063	-791.4945068359377	-301.5363159179688	1186.43359375	-790.6079101562502	-337.6147155761719	1173.140747070313	-858.6486816406252	-114.1978836059571	977.8726806640627	-873.7730102539065	-157.3321685791016	947.1560058593752	-818.234313964844	-60.4394989013672	904.4014282226565	-863.1444091796877	-225.0164184570313	1083.451293945313	-1159.872924804688	-212.2375030517579	1086.755126953125	-928.865661621094	-403.6012573242189	1132.43701171875	-1034.368530273438	-411.0707092285157	1102.76806640625	-1061.081909179688	-410.0414123535157	1103.961669921875	-1005.256896972656	-360.0439453125001	833.7385253906252	-1223.257446289063	-325.8013305664063	756.3874511718751	-1230.615966796875	-278.6358642578126	758.1655273437501	-1230.991333007813	-351.1900024414063	704.1765136718751	-1217.031860351563	-338.9758911132813	570.3778076171876	-1208.318359375	-342.2773742675782	548.8551635742189	-1076.348999023438	-297.9602050781251	349.5156860351563	-1170.530029296875	-367.1351928710938	308.1274108886719	-1209.139892578125	-323.6012573242188	302.8217163085938	-1195.806518554688	-310.8986206054688	224.9460449218751	-1161.25390625	-369.9506835937501	133.2218017578125	-1170.027221679688	-336.3420104980469	147.7764892578125	-1091.215454101563	-429.7784118652345	102.4807510375977	-1120.70751953125	-216.4498138427735	59.42504882812501	-1103.534912109375	-217.0291442871094	53.73200988769533	-1149.899047851563	-270.4985961914063	41.24069213867188	-1198.085083007813	-292.7413635253907	821.0795898437502	-863.8583984375002	-265.0532531738282	760.9437866210939	-869.5452270507815	-231.9413146972657	760.0411376953126	-876.3667602539065	-303.1755065917969	687.8395996093751	-882.8383789062502	-313.7239685058594	551.4090576171876	-896.7532958984377	-313.0605163574219	548.4520263671876	-1030.249145507813	-276.2682800292969	363.5397338867188	-929.5375976562502	-351.9373474121094	291.0871887207032	-911.196716308594	-307.1106567382813	283.6441955566407	-918.6563720703127	-294.3196105957032	238.0742645263672	-955.0938110351565	-356.0754394531251	133.1325836181641	-941.2648925781252	-333.4171447753907	142.9880676269532	-1025.5302734375	-418.4523010253907	102.4532089233399	-1002.605224609375	-203.0522766113282	53.29625320434572	-997.3931884765627	-210.6165313720704	56.08830642700197	-958.3868408203127	-258.0319213867188	41.49534225463868	-907.5046386718752	nan	nan	nan	nan	nan	nan	
3	0.01	-130.732177734375	1761.341186523438	-1079.216064453125	-252.8584899902344	1737.557373046875	-1144.31103515625	-336.2990417480469	1716.948486328125	-1025.375854492188	-357.5513610839844	1584.93310546875	-1056.305786132813	-397.5213317871095	1262.38232421875	-1043.966186523438	-233.3141174316407	1505.250122070313	-1053.608642578125	-286.7096557617188	1537.030639648438	-1228.468017578125	-298.3683776855469	1322.163330078125	-1294.64990234375	-260.8136291503907	1301.574462890625	-1271.543701171875	-294.5205993652344	1253.298461914063	-1294.003784179688	-303.0882568359376	1188.707153320313	-1286.6142578125	-338.3246459960938	1183.593139648438	-1228.936767578125	-114.7853393554688	995.234558105469	-1180.896484375	-143.2122802734375	964.6399536132815	-1246.1572265625	-50.57307052612306	931.5468750000002	-1186.97216796875	-279.3651733398438	1527.240478515625	-883.649108886719	-314.3891601562501	1319.88330078125	-794.6319580078127	-276.4715881347657	1295.345336914063	-811.3082275390627	-310.2185668945313	1250.941040039063	-791.320739746094	-302.5129394531251	1186.212768554688	-790.1296386718752	-338.4985046386719	1173.412475585938	-858.5112915039065	-117.3449249267578	975.2348632812502	-871.6256103515627	-160.5168151855469	946.048767089844	-815.1424560546877	-64.66709136962892	901.3581542968752	-860.3477172851565	-225.2658691406251	1083.31787109375	-1160.032104492188	-212.4005126953126	1086.658203125	-928.6677856445315	-403.3557739257814	1132.453247070313	-1034.329833984375	-412.134979248047	1102.789184570313	-1061.444946289063	-409.7769470214845	1103.993896484375	-1005.247253417969	-359.7603454589844	833.7336425781252	-1223.183715820313	-325.4826354980469	756.4111328125001	-1230.561767578125	-278.3861389160157	758.1543579101564	-1230.984130859375	-350.8657531738282	704.1748046875001	-1216.985717773438	-338.6927490234376	570.3978881835939	-1208.255249023438	-342.0062866210938	548.8910522460939	-1076.26318359375	-297.8900146484376	349.5505981445313	-1170.414672851563	-366.9318237304688	308.1398010253907	-1209.113403320313	-323.2694702148438	302.2255554199219	-1195.877319335938	-310.8128356933594	224.9732666015626	-1161.230224609375	-369.9246520996094	133.2273101806641	-1170.000366210938	-336.3432312011719	147.7563629150391	-1091.187255859375	-429.8004455566407	102.4797439575196	-1120.707641601563	-216.5095214843751	59.42216110229494	-1103.5107421875	-216.9664916992188	53.70385742187501	-1149.879028320313	-270.4703369140626	41.20440673828126	-1198.07177734375	-292.6394958496094	821.115905761719	-863.7116699218752	-264.6364135742188	760.8477172851564	-869.6381835937502	-231.7293548583985	760.0928344726564	-876.208435058594	-302.9904174804688	687.8429565429689	-882.7969970703127	-313.4297180175782	551.4120483398439	-896.7126464843752	-312.7365112304688	548.4419555664064	-1030.267333984375	-276.0694885253907	363.4390869140626	-929.5484619140627	-351.7935180664063	291.0799255371094	-911.2073364257815	-307.0056152343751	283.6025085449219	-918.6436157226565	-294.0806579589844	238.0444641113282	-955.2017822265627	-356.0663146972657	133.1027984619141	-941.257263183594	-333.4229736328126	143.0296478271485	-1025.5283203125	-418.482879638672	102.4620590209961	-1002.592407226563	-203.1529541015626	53.1896438598633	-997.4031372070315	-210.6124267578126	56.07829666137697	-958.3792114257815	-258.0007629394532	41.48385620117188	-907.512634277344	nan	nan	nan	nan	nan	nan	
4	0.015	-129.8656158447266	1761.336303710938	-1078.816284179688	-252.0675964355469	1737.484252929688	-1144.302490234375	-335.9791870117188	1717.019897460938	-1025.765747070313	-357.0887756347657	1584.940673828125	-1056.380004882813	-397.2302551269532	1262.430908203125	-1043.963623046875	-232.9262237548829	1505.2265625	-1053.573364257813	-286.1864013671876	1536.8583984375	-1228.622802734375	-298.6038818359376	1321.866088867188	-1294.520263671875	-261.1090087890626	1301.185668945313	-1271.47119140625	-295.1047668457032	1252.935180664063	-1293.61962890625	-304.0588684082032	1188.527221679688	-1286.170166015625	-338.8789672851563	1183.651733398438	-1228.272583007813	-118.2047348022461	991.401306152344	-1183.09814453125	-147.9128112792969	961.5411376953127	-1248.408935546875	-54.80620574951173	926.583190917969	-1190.977294921875	-279.0994873046876	1527.260498046875	-883.5806884765627	-314.7619323730469	1320.037231445313	-794.4954833984377	-277.0273132324219	1295.316528320313	-811.0802001953127	-311.1811828613282	1251.06591796875	-791.0543212890627	-303.7412109375001	1186.403564453125	-789.878845214844	-339.3453674316407	1173.646850585938	-858.300964355469	-120.5677261352539	972.9097900390627	-869.447448730469	-164.2038726806641	944.5097656250002	-813.1270141601565	-68.96019744873048	898.106628417969	-857.3494873046877	-224.9851226806641	1083.282104492188	-1159.937866210938	-212.1284484863282	1086.635375976563	-928.587829589844	-403.0996398925782	1132.463012695313	-1034.317626953125	-410.4668273925782	1102.780639648438	-1060.998657226563	-409.529510498047	1104.009521484375	-1005.204223632813	-359.4959716796876	833.7509765625002	-1223.13134765625	-325.1882629394532	756.4311523437501	-1230.51220703125	-278.0666198730469	758.1785278320314	-1230.866455078125	-350.5523071289063	704.2214355468751	-1216.95654296875	-338.4818115234376	570.0597534179689	-1207.889770507813	-341.7230529785157	548.8718872070314	-1076.200317382813	-297.7644348144532	349.4436340332032	-1170.334106445313	-366.7553710937501	308.1501464843751	-1209.085205078125	-323.1916198730469	302.2425537109376	-1195.873779296875	-310.7324218750001	224.9331207275391	-1161.228637695313	-369.0134277343751	133.2691040039063	-1169.683959960938	-336.3677673339844	147.7540740966797	-1091.2109375	-429.7850952148439	102.4776306152344	-1120.723266601563	-216.5423278808594	59.42067337036134	-1103.482177734375	-216.9665222167969	53.70388793945314	-1149.879028320313	-270.0735778808594	40.93269348144532	-1197.937133789063	-292.3830261230469	821.0010375976565	-863.7465820312502	-263.9107055664063	760.5609130859376	-869.346374511719	-231.6050567626954	760.0613403320314	-876.1643676757815	-302.6741333007813	687.8516235351564	-882.8449707031252	-313.2151794433594	551.4297485351564	-896.7046508789065	-312.4035949707032	548.4157104492189	-1030.273071289063	-275.9272155761719	363.3837585449219	-929.5119628906252	-351.6688537597657	291.0950927734376	-911.2022094726565	-306.8960571289063	283.5264892578126	-918.7180175781252	-293.8960266113282	237.9922790527344	-955.2927856445315	-356.0391540527344	133.1372985839844	-941.2567138671877	-333.3996887207032	143.0085144042969	-1025.528686523438	-418.4451293945314	102.4646606445313	-1002.606079101563	-203.2248229980469	53.20667648315431	-997.4082031250002	-210.6298522949219	56.0746421813965	-958.354187011719	-258.0007629394532	41.48385620117188	-907.512634277344	nan	nan	nan	nan	nan	nan	
